Coordinates
version=1
nRows=17
nColumns=24
inDegrees=yes

Units are S.I. units (second, meters, Newtons, ...)
Angles are in degrees.

endheader
time	pelvis_tilt	pelvis_list	pelvis_rotation	pelvis_tx	pelvis_ty	pelvis_tz	hip_flexion_r	hip_adduction_r	hip_rotation_r	knee_angle_r	ankle_angle_r	subtalar_angle_r	mtp_angle_r	hip_flexion_l	hip_adduction_l	hip_rotation_l	knee_angle_l	ankle_angle_l	subtalar_angle_l	mtp_angle_l	lumbar_extension	lumbar_bending	lumbar_rotation
      1.79150000	     -1.81128935	      3.77119267	     -4.02218458	      1.36202469	      1.01998891	      0.28483226	     15.71398691	     -7.51247421	     -5.39756647	    -61.61596944	      5.83402578	     -7.02911965	      0.98359770	     13.73884492	      9.57170485	     -0.83244047	    -16.07037826	      6.33793182	    -11.30053611	      3.30838579	     -2.55305433	     -6.14071185	      3.75278279
      1.79566667	     -1.76566423	      3.65977985	     -3.92336447	      1.36678611	      1.02085217	      0.28446372	     16.24034407	     -7.32881900	     -5.28789796	    -61.16100695	      6.08351866	     -7.33506620	      0.93808895	     13.23491113	      9.52176882	     -0.65891723	    -15.78545213	      6.39340442	    -11.25981362	      3.25021628	     -2.68516079	     -6.00986561	      3.70547042
      1.79983333	     -1.70891327	      3.56614348	     -3.85289470	      1.37156990	      1.02167910	      0.28415160	     16.75322039	     -7.15347489	     -5.14092982	    -60.67892537	      6.27345250	     -7.67897556	      0.87944959	     12.71101661	      9.48316606	     -0.51887643	    -15.47251593	      6.40590402	    -11.27630455	      3.18071512	     -2.81933526	     -5.90939043	      3.59684214
      1.80400000	     -1.65032889	      3.48224097	     -3.77154832	      1.37637278	      1.02247565	      0.28382443	     17.24611225	     -6.99166130	     -5.00640543	    -60.15344217	      6.44471927	     -8.01674647	      0.79849878	     12.17353647	      9.46011001	     -0.33548875	    -15.13601560	      6.40441376	    -11.32951218	      3.08895483	     -2.94441602	     -5.81286593	      3.46044544
      1.80816667	     -1.63515946	      3.40846424	     -3.71105878	      1.38113564	      1.02310992	      0.28354969	     17.79458206	     -6.83001322	     -4.84720238	    -59.62415486	      6.62838050	     -8.33467000	      0.73210044	     11.71138084	      9.43328039	     -0.20544166	    -14.85004753	      6.42737065	    -11.35893568	      3.01526186	     -3.02542450	     -5.73605431	      3.36753665
      1.81233333	     -1.56259658	      3.35108625	     -3.64154948	      1.38594151	      1.02381790	      0.28325378	     18.26033488	     -6.69680534	     -4.70157641	    -59.05554454	      6.82469959	     -8.58374945	     -0.35976936	     11.15026663	      9.44102297	      0.01972139	    -14.49186751	      6.40873856	    -11.50062738	      1.78920605	     -3.15593514	     -5.67553258	      3.29141898
      1.81650000	     -1.57115765	      3.27915640	     -3.58391576	      1.39062965	      1.02432291	      0.28303414	     18.82085844	     -6.51816706	     -4.52152218	    -58.46300452	      6.93545250	     -8.93835910	     -0.38038916	     10.73667179	      9.40129403	      0.08714880	    -14.23866554	      6.47051068	    -11.46353706	      1.77415739	     -3.21932388	     -5.60266476	      3.17448186
      1.82066667	     -1.55807306	      3.22330293	     -3.53315003	      1.39542415	      1.02483276	      0.28281723	     19.33589442	     -6.36596950	     -4.34887134	    -57.83676045	      7.09533061	     -9.19703969	     -0.39503125	     10.27503016	      9.38108688	      0.15957158	    -13.93987818	      6.52482948	    -11.44232996	      1.76343639	     -3.25805140	     -5.53746426	      3.10575532
      1.82483333	     -1.53074020	      3.15752433	     -3.46880937	      1.40012980	      1.02532441	      0.28261684	     19.82347761	     -6.19244047	     -4.16788068	    -57.16932564	      7.13811101	     -9.53432250	     -0.42739118	      9.81277241	      9.35491627	      0.29653431	    -13.67108198	      6.55394217	    -11.46604665	      1.73970546	     -3.38474658	     -5.48645587	      2.99511957
      1.82900000	     -1.52503845	      3.11328016	     -3.42122053	      1.40486701	      1.02570931	      0.28243323	     20.33335882	     -6.04239402	     -3.97660453	    -56.49259799	      7.21752728	     -9.79494696	     -0.46044228	      9.37900869	      9.34590615	      0.38550654	    -13.40893439	      6.60004360	    -11.49014650	      1.71275033	     -3.45141923	     -5.44744404	      2.89930203
      1.83316667	     -1.51770751	      3.06368889	     -3.35945302	      1.40959982	      1.02606245	      0.28226001	     20.82051762	     -5.88479645	     -3.79177107	    -55.78230858	      7.29741867	    -10.02160144	     -0.49646286	      8.94476783	      9.33101578	      0.50005315	    -13.14676447	      6.65212014	    -11.50572467	      1.68336134	     -3.51619483	     -5.40382674	      2.81297711
      1.83733333	     -1.50638996	      3.03577868	     -3.31399966	      1.41428560	      1.02635184	      0.28211920	     21.31150393	     -5.74370992	     -3.57992980	    -55.06505913	      7.35324849	    -10.22521547	     -0.53540412	      8.51548167	      9.33510128	      0.58152174	    -12.89304834	      6.70493347	    -11.52276175	      1.65052943	     -3.59252221	     -5.38915641	      2.72512072
      1.84150000	     -1.50865201	      2.99804983	     -3.25032443	      1.41901447	      1.02660830	      0.28196401	     21.78520433	     -5.59611157	     -3.38745686	    -54.30565312	      7.40329128	    -10.38859781	     -0.57224595	      8.10493150	      9.32923566	      0.67817288	    -12.65905188	      6.77086520	    -11.54349113	      1.61828877	     -3.64726873	     -5.35928565	      2.64410905
      1.84566667	     -1.50707397	      2.97836114	     -3.18149527	      1.42368179	      1.02679978	      0.28181318	     22.25630788	     -5.47016847	     -3.19335006	    -53.53371523	      7.40580913	    -10.53832149	     -0.62466366	      7.70123583	      9.34378338	      0.79562349	    -12.43939941	      6.83843301	    -11.56012204	      1.56730500	     -3.71967229	     -5.35509057	      2.53667039
      1.84983333	     -1.49974735	      2.94927687	     -3.10782920	      1.42842459	      1.02698505	      0.28167205	     22.69277867	     -5.33289347	     -3.00011148	    -52.72356325	      7.43002817	    -10.64138436	     -0.68150300	      7.28675801	      9.34651958	      0.90487096	    -12.21415058	      6.90624966	    -11.57973946	      1.50758832	     -3.78374594	     -5.34590825	      2.43205046
      1.85400000	     -1.50840628	      2.92628337	     -3.03708341	      1.43309792	      1.02709469	      0.28155077	     23.14253887	     -5.19780381	     -2.79487335	    -51.90078453	      7.47217812	    -10.68983226	     -0.71612240	      6.90688766	      9.35118837	      0.99534992	    -12.02072335	      6.99777449	    -11.58737865	      1.46944111	     -3.84083965	     -5.33495731	      2.35541924
      1.85816667	     -1.51806082	      2.90729853	     -2.95182896	      1.43776113	      1.02716347	      0.28141817	     23.58102650	     -5.06878387	     -2.59077625	    -51.05573735	      7.45504049	    -10.73225535	     -0.75238098	      6.53661094	      9.36175092	      1.10619676	    -11.84571493	      7.09017932	    -11.60189592	      1.42881239	     -3.90198865	     -5.33494599	      2.25530670
